<?xml version="1.0" encoding="UTF-8" standalone="no"?>
<!-- Created with Inkscape (http://www.inkscape.org/) -->

<svg
   width="201.57745mm"
   height="17.197929mm"
   viewBox="0 0 201.57745 17.197929"
   version="1.1"
   id="svg258"
   inkscape:export-filename="../cs_logo.png"
   inkscape:export-xdpi="96"
   inkscape:export-ydpi="96"
   inkscape:version="1.2 (1:1.2.1+202207142221+cd75a1ee6d)"
   sodipodi:docname="color_space.svg"
   xml:space="preserve"
   xmlns:inkscape="http://www.inkscape.org/namespaces/inkscape"
   xmlns:sodipodi="http://sodipodi.sourceforge.net/DTD/sodipodi-0.dtd"
   xmlns="http://www.w3.org/2000/svg"
   xmlns:svg="http://www.w3.org/2000/svg"><sodipodi:namedview
     id="namedview260"
     pagecolor="#ffffff"
     bordercolor="#999999"
     borderopacity="1"
     inkscape:showpageshadow="0"
     inkscape:pageopacity="0"
     inkscape:pagecheckerboard="0"
     inkscape:deskcolor="#d1d1d1"
     inkscape:document-units="mm"
     showgrid="false"
     inkscape:zoom="0.54866744"
     inkscape:cx="428.31045"
     inkscape:cy="-28.250264"
     inkscape:window-width="1524"
     inkscape:window-height="782"
     inkscape:window-x="65"
     inkscape:window-y="138"
     inkscape:window-maximized="0"
     inkscape:current-layer="layer1"
     showguides="true" /><defs
     id="defs255" /><g
     inkscape:label="Layer 1"
     inkscape:groupmode="layer"
     id="layer1"
     transform="translate(15.69926,-277.50581)"><path
       style="fill:#ffffff;fill-opacity:1;stroke-width:0.264583"
       d="m 138.24916,294.5053 c -0.002,-0.10914 0.9704,-3.2643 2.16139,-7.01146 l 2.16543,-6.81302 h 1.25615 c 0.69087,0 1.2983,0.12649 1.34984,0.28109 0.0661,0.1984 0.31119,0.1984 0.83302,0 1.1577,-0.44015 3.37944,-0.33945 4.41317,0.20004 0.60266,0.31452 1.14074,0.9162 1.55381,1.73746 0.57425,1.14171 0.60201,1.35611 0.30425,2.34994 -0.83237,2.7782 -4.349,4.20235 -7.01744,2.8419 -0.61225,-0.31214 -1.09837,-0.42262 -1.19211,-0.27094 -0.0871,0.14086 -0.43083,1.74726 -0.76393,3.56977 l -0.60564,3.31366 h -2.22695 c -1.22482,0 -2.22877,-0.0893 -2.23099,-0.19844 z m 10.38894,-9.61681 c 0.62506,-0.75885 0.58323,-1.20109 -0.18642,-1.97074 -0.73765,-0.73766 -1.67962,-0.82683 -2.77122,-0.26234 -1.59336,0.82396 -1.35931,2.7482 0.37795,3.10722 0.82019,0.1695 2.06844,-0.25347 2.57969,-0.87414 z m -159.213025,3.48833 c -1.572338,-0.43736 -2.264313,-0.82009 -3.436828,-1.90088 -2.111515,-1.94632 -2.246343,-4.1579 -0.377113,-6.18578 1.668107,-1.80968 3.256845,-2.3797 6.644416,-2.38393 3.092299,-0.004 3.67147,0.20997 3.09011,1.14087 -0.303299,0.48566 -0.519408,0.52864 -1.974729,0.39274 -2.218507,-0.20717 -3.389185,0.0585 -4.48068,1.01686 -0.746971,0.65585 -0.920384,0.99718 -0.920384,1.81162 0,0.81444 0.173413,1.15577 0.920384,1.81162 0.506212,0.44446 1.343726,0.88753 1.861143,0.9846 1.026591,0.19259 3.709357,0.0332 4.394281,-0.26112 0.310177,-0.13328 0.658134,0.12736 1.256771,0.94138 0.455311,0.61913 0.827837,1.22799 0.827837,1.35302 0,0.12504 -0.560115,0.4751 -1.244701,0.77793 -1.366968,0.60467 -5.149465,0.89357 -6.560507,0.50107 z m 10.93857304,-0.0164 c -2.01511104,-0.60876 -2.86878104,-1.62634 -2.86878104,-3.4196 0,-2.29469 2.21221504,-3.99613 5.46739,-4.20504 3.532287,-0.22669 5.6451097,1.14327 5.6451097,3.66029 0,1.0655 -0.1426761,1.45591 -0.809711,2.21562 -1.4294057,1.628 -5.0299937,2.47498 -7.43400766,1.74873 z M 4.677112,285.21275 c 0.817752,-0.80936 0.847011,-1.55382 0.09079,-2.31004 -0.578555,-0.57856 -0.858208,-0.67122 -1.641872,-0.54405 -1.129643,0.18332 -2.19157996,1.10355 -2.19157996,1.89914 0,1.48502 2.54976696,2.1356 3.74266196,0.95495 z m 23.357058,2.92083 c -1.155382,-0.54263 -1.964303,-1.80752 -1.964303,-3.07153 0,-0.82572 0.795906,-2.47505 1.502883,-3.11438 1.263925,-1.14298 4.391359,-1.67099 5.711759,-0.96434 0.424111,0.22698 0.590455,0.22698 0.666112,0 0.05736,-0.17207 0.659628,-0.30252 1.39667,-0.30252 1.487659,0 1.393174,-0.17713 1.834798,3.43958 0.151037,1.23693 0.342416,2.69545 0.425286,3.24115 l 0.150672,0.99219 h -1.87534 c -1.723446,0 -1.87534,-0.0446 -1.87534,-0.55075 v -0.55075 l -0.932699,0.57644 c -1.328219,0.82089 -3.643646,0.96095 -5.040498,0.30491 z m 4.67192,-2.42569 c 0.481134,0 1.301277,-1.07181 1.301277,-1.70059 0,-0.96401 -1.228977,-1.82347 -2.347839,-1.64191 -1.50741,0.24462 -2.296363,1.29809 -1.858534,2.48166 0.214519,0.5799 1.635382,1.17597 2.309784,0.96899 0.193802,-0.0595 0.461692,-0.10815 0.595312,-0.10815 z m 11.0963,2.61514 c -0.36081,-0.14396 -0.856041,-0.44277 -1.100516,-0.66401 -0.401595,-0.36344 -0.461304,-0.34933 -0.618583,0.14622 -0.15441,0.4865 -0.384585,0.54849 -2.036646,0.54849 -1.43352,0 -1.831705,-0.0804 -1.728613,-0.34907 0.07367,-0.19198 0.865418,-2.63276 1.759437,-5.42395 l 1.625489,-5.0749 h 1.172673 1.172673 l -0.155675,0.8599 c -0.08562,0.47294 -0.250521,1.315 -0.366443,1.87125 -0.185052,0.88796 -0.157181,0.98643 0.228436,0.80709 0.241562,-0.11234 1.213109,-0.24847 2.158995,-0.3025 1.461598,-0.0835 1.855165,-0.006 2.621505,0.51583 0.495943,0.33773 1.135223,0.92936 1.420624,1.31474 0.918663,1.24047 0.533887,3.58766 -0.783579,4.77995 -1.240661,1.12279 -3.820205,1.58921 -5.369777,0.97096 z m 2.677969,-3.08459 c 1.23879,-1.29643 0.525825,-2.82581 -1.317331,-2.82581 -1.868998,0 -3.125663,1.80861 -1.96139,2.82286 0.254661,0.22184 0.641614,0.47344 0.859895,0.5591 0.626856,0.246 1.941084,-0.0562 2.418826,-0.55615 z m 7.645009,3.08491 c -3.951436,-1.20137 -3.771733,-5.35593 0.30757,-7.1108 1.836103,-0.78987 4.915802,-0.67359 6.396464,0.24151 2.616128,1.61685 2.205974,4.93442 -0.789313,6.38441 -1.419342,0.68709 -4.436187,0.93441 -5.914721,0.48488 z m 3.716139,-2.61546 c 0.525992,0 1.301276,-1.0994 1.301276,-1.84529 0,-1.14024 -1.263205,-1.77521 -2.684475,-1.34939 -1.131928,0.33914 -1.621745,1.01986 -1.499024,2.08329 0.06328,0.54835 0.297821,0.78804 1.008499,1.03067 0.509323,0.17388 1.084607,0.26318 1.278411,0.19844 0.193802,-0.0648 0.461693,-0.11772 0.595313,-0.11772 z m 17.793525,2.62009 c -3.272731,-0.9475 -2.72752,-6.03711 0.789038,-7.36575 0.941695,-0.3558 3.498056,-0.36573 4.151299,-0.0161 0.33137,0.17734 0.550077,0.17734 0.659681,0 0.246039,-0.3981 2.776778,-0.33868 2.786631,0.0654 0.0044,0.1819 0.222554,1.90831 0.484704,3.83646 l 0.476639,3.50573 h -1.807621 c -1.63123,0 -1.80762,-0.0516 -1.80762,-0.52917 0,-0.6207 -0.198225,-0.66424 -0.772916,-0.16976 -1.022012,0.87937 -3.218106,1.17744 -4.959835,0.67318 z m 5.137439,-3.30626 c 0.725882,-0.81238 0.743722,-1.18859 0.09439,-1.99048 -1.05277,-1.30012 -3.996997,-0.39662 -3.996997,1.22656 0,1.64149 2.654234,2.16105 3.902604,0.76392 z m 7.342187,3.29107 c -1.2739,-0.69677 -1.481891,-1.75818 -0.790887,-4.03601 0.51608,-1.7012 0.497507,-2.00847 -0.121391,-2.00847 -0.457771,0 -0.484462,-0.0888 -0.238701,-0.79375 0.201895,-0.57915 0.445293,-0.79375 0.900289,-0.79375 0.50319,0 0.657127,-0.17879 0.797314,-0.92604 0.171035,-0.9117 0.194218,-0.92604 1.496642,-0.92604 h 1.322917 l -0.173725,0.92604 c -0.167648,0.89364 -0.145535,0.92604 0.632012,0.92604 0.718876,0 0.805739,0.0856 0.805739,0.79375 0,0.72877 -0.07483,0.79375 -0.914054,0.79375 -0.826375,0 -0.927367,0.0825 -1.052861,0.8599 -0.366406,2.2698 -0.285258,2.63369 0.564761,2.53247 0.571767,-0.0681 0.751501,0.0471 0.899668,0.57638 0.412816,1.47476 0.291753,1.81225 -0.754285,2.10275 -1.271667,0.35316 -2.699256,0.34173 -3.373438,-0.027 z m 14.113572,0.0476 c -1.14552,-0.34606 -2.274719,-1.11085 -2.63551,-1.785 -0.785884,-1.46843 -0.05206,-3.6518 1.602,-4.76647 2.61675,-1.76343 7.09693,-1.44287 8.72872,0.62456 0.5022,0.63626 0.58128,0.99542 0.48299,2.1935 -0.10105,1.23165 -0.25005,1.55409 -1.06205,2.29823 -1.53401,1.40582 -4.93972,2.09268 -7.11615,1.43518 z m 4.31346,-3.14767 c 1.25189,-1.23904 0.51696,-2.80012 -1.31824,-2.80012 -1.87194,0 -3.12082,1.80199 -1.9614,2.83007 0.8947,0.79334 2.46228,0.77902 3.27964,-0.0299 z m 24.12437,3.04179 c -0.60768,-0.19941 -1.54193,-0.63269 -2.07612,-0.96284 l -0.97127,-0.60027 1.30253,-1.30253 1.30252,-1.30252 1.27602,0.67846 c 0.77605,0.41263 1.70403,0.67847 2.36837,0.67847 1.17389,0 2.26842,-0.5836 2.26842,-1.20952 0,-0.44511 -1.30065,-1.29914 -2.64583,-1.7373 -2.9021,-0.94528 -3.24989,-2.9439 -0.73549,-4.22665 0.93225,-0.4756 1.43334,-0.54306 3.30423,-0.44487 2.53406,0.13301 2.96893,0.37675 2.25192,1.26221 -0.45555,0.56258 -0.56577,0.58345 -1.48301,0.28073 -1.30901,-0.43201 -2.80848,-0.15978 -2.80848,0.50988 0,0.36415 0.36906,0.61664 1.38906,0.95032 3.15433,1.03189 4.43177,2.11562 4.43177,3.75976 0,1.32124 -0.87812,2.57308 -2.28145,3.25242 -1.52046,0.73604 -5.23274,0.95913 -6.89319,0.41425 z m 25.69652,0.0811 c -1.62961,-0.47361 -2.60233,-2.44863 -2.13096,-4.32673 0.23628,-0.9414 1.70871,-2.54468 2.72822,-2.97066 1.00191,-0.41862 3.59974,-0.47413 4.31345,-0.0922 0.33137,0.17734 0.55007,0.17734 0.65968,0 0.24587,-0.39783 2.77584,-0.33851 2.79088,0.0654 0.007,0.1819 0.22546,1.90831 0.48596,3.83646 l 0.47363,3.50573 h -1.80887 c -1.63248,0 -1.80887,-0.0516 -1.80887,-0.52917 0,-0.6207 -0.19823,-0.66424 -0.77292,-0.16976 -1.015,0.87334 -3.22011,1.17786 -4.9302,0.68086 z m 5.10781,-3.31394 c 0.72588,-0.81238 0.74372,-1.18859 0.0944,-1.99048 -1.05277,-1.30012 -3.997,-0.39662 -3.997,1.22656 0,1.64149 2.65424,2.16105 3.90261,0.76392 z m 7.58597,3.09485 c -1.49498,-0.67899 -2.22816,-1.68808 -2.22816,-3.06669 0,-2.43559 2.56688,-4.37244 5.7849,-4.36502 2.2434,0.005 2.66643,0.2376 2.07509,1.1401 -0.37146,0.56692 -0.57726,0.64073 -1.45737,0.52268 -1.31791,-0.17676 -2.62778,0.47301 -2.86587,1.42164 -0.33673,1.34162 0.92792,2.31317 2.69416,2.06975 1.02373,-0.14109 1.09179,-0.10519 1.52573,0.8048 0.24982,0.52387 0.39473,1.04873 0.32203,1.16636 -0.20485,0.33146 -2.36544,0.80877 -3.63177,0.80231 -0.62678,-0.003 -1.62522,-0.22636 -2.21874,-0.49593 z m 8.99584,0 c -2.95622,-1.34264 -3.01344,-4.62071 -0.11417,-6.53936 0.85315,-0.56458 1.48502,-0.7385 3.04741,-0.83877 1.26152,-0.081 2.26077,-0.007 2.77582,0.20684 1.10746,0.45873 2.11694,1.73014 2.11694,2.66625 v 0.77345 h -3.43958 c -2.11667,0 -3.43959,0.10176 -3.43959,0.26458 0,0.14552 0.23813,0.50271 0.52917,0.79375 0.64764,0.64764 2.08461,0.69615 3.22056,0.10873 0.74641,-0.38599 0.90795,-0.38419 1.97124,0.0219 0.63701,0.24328 1.1582,0.54548 1.1582,0.67156 0,0.434 -1.8305,1.62437 -3.07283,1.99826 -1.69088,0.50888 -3.45676,0.46163 -4.75317,-0.12717 z m 4.76476,-5.28911 c 0.2272,-0.36761 -0.52968,-0.85591 -1.36341,-0.87961 -0.90093,-0.0256 -2.00431,0.50782 -1.78485,0.8629 0.19627,0.31758 2.95328,0.3322 3.14826,0.0167 z m -171.143366,4.71222 c -0.894257,-1.06277 -0.897009,-2.41747 -0.0114,-5.61643 1.232104,-4.45058 1.060786,-4.15286 2.389653,-4.15286 0.643559,0 1.166148,0.0893 1.161309,0.19844 -0.0048,0.10914 -0.22784,1.61262 -0.495562,3.34107 -0.267721,1.72845 -0.430429,3.35807 -0.361571,3.62138 0.06886,0.26331 0.470453,0.5991 0.892437,0.74621 0.870479,0.30345 0.927052,0.5414 0.380155,1.59898 -0.452749,0.87552 -0.875389,1.07726 -2.256864,1.07726 -0.806553,0 -1.152866,-0.16602 -1.698153,-0.81405 z m 8.509288,0.52827 c -0.626057,-0.36465 -1.256765,-1.64047 -1.256765,-2.54224 0,-0.4057 0.43539,-2.31661 0.967531,-4.24647 l 0.967533,-3.50885 h 1.149133 c 0.742747,0 1.149252,0.11697 1.149464,0.33073 1.77e-4,0.1819 -0.195781,1.71766 -0.435464,3.41279 -0.239686,1.69514 -0.360466,3.27836 -0.268399,3.51828 0.09206,0.23992 0.519636,0.55901 0.950158,0.70909 0.714373,0.24903 0.759304,0.33458 0.514239,0.97915 -0.463536,1.2192 -1.022612,1.63393 -2.190932,1.62525 -0.595908,-0.004 -1.291834,-0.1294 -1.546498,-0.27773 z m 42.731722,-0.045 c 0.06835,-0.1819 0.620498,-1.90831 1.227,-3.83646 l 1.102728,-3.50573 h 1.314852 c 1.002202,0 1.314849,0.096 1.314849,0.40367 0,0.36184 0.08089,0.36184 0.780611,0 0.74368,-0.38457 3.452723,-0.57763 3.452723,-0.24606 0,0.0867 -0.195488,0.48855 -0.43442,0.89303 -0.395292,0.66918 -0.564134,0.73243 -1.874633,0.70228 -1.839394,-0.0423 -2.241143,0.41256 -2.690413,3.04619 -0.527249,3.09074 -0.341927,2.87381 -2.455006,2.87381 -1.379937,0 -1.830361,-0.0857 -1.738291,-0.33073 z m 30.099929,0.26458 c 0.0028,-0.0364 0.518514,-1.73302 1.146037,-3.77031 l 1.140955,-3.70417 1.367504,-0.08 c 0.987528,-0.0577 1.367727,0.0158 1.368301,0.26458 5.29e-4,0.18951 -0.265184,1.92214 -0.590272,3.85029 l -0.591069,3.50573 h -1.92327 c -1.057798,0 -1.92098,-0.0298 -1.918186,-0.0661 z m 18.930417,-3.56073 c 0.64002,-2.00704 1.16573,-3.73846 1.16825,-3.8476 0.007,-0.3105 2.915,-0.23523 2.915,0.0755 0,0.1888 0.159,0.1888 0.51177,0 0.74274,-0.3975 3.06167,-0.33561 4.12862,0.11019 1.13595,0.47463 1.34021,0.99388 1.56947,3.98975 0.0999,1.30517 0.23983,2.5814 0.31099,2.83607 0.11473,0.41055 -0.09,0.46305 -1.80667,0.46331 l -1.93605,2.9e-4 0.0896,-2.75694 c 0.0875,-2.69193 0.074,-2.76715 -0.57027,-3.18932 -0.59609,-0.39057 -0.75216,-0.3938 -1.61468,-0.0334 -1.11409,0.4655 -1.15124,0.54253 -1.71397,3.55365 l -0.42854,2.29315 -1.8936,0.0773 -1.89359,0.0773 1.16366,-3.64916 z m -15.633796,-5.20803 c -0.427882,-0.31288 -0.450506,-0.43223 -0.150466,-0.79375 0.194228,-0.23403 0.699484,-0.42551 1.122796,-0.42551 0.955458,0 1.31322,0.717 0.613177,1.22889 -0.620321,0.45358 -0.954796,0.45155 -1.585507,-0.01 z"
       id="path302" /></g></svg>
